<?xml version="1.0" encoding="UTF-8"?>
<svg xmlns="http://www.w3.org/2000/svg" xmlns:xlink="http://www.w3.org/1999/xlink" width="30pt" height="30pt" viewBox="0 0 30 30" version="1.1">
<g id="surface1">
<path style=" stroke:none;fill-rule:nonzero;fill:#A4CDFF;fill-opacity:1;" d="M 24.671875 1.972656 L 24.671875 4.933594 L 18.75 4.933594 L 18.75 5.742188 C 20.292969 6.429688 21.457031 7.519531 22.125 8.882813 L 24.671875 8.882813 L 24.671875 11.84375 L 29.605469 6.90625 Z M 12.828125 4.933594 L 12.828125 7.148438 C 10.359375 7.722656 8.828125 9.402344 8.828125 11.753906 C 8.828125 14.113281 10.242188 15.609375 12.984375 16.128906 L 14.953125 16.519531 C 16.664063 16.859375 17.320313 17.308594 17.320313 18.140625 C 17.320313 19.128906 16.34375 19.8125 14.921875 19.8125 C 13.34375 19.8125 12.253906 19.117188 12.160156 18.023438 L 8.527344 18.023438 C 8.578125 20.375 10.1875 21.976563 12.828125 22.496094 L 12.828125 24.671875 L 16.777344 24.671875 L 16.777344 22.476563 C 19.480469 21.925781 21.078125 20.226563 21.078125 17.6875 C 21.078125 15.308594 19.75 13.964844 16.792969 13.394531 L 14.859375 13.023438 C 13.285156 12.710938 12.617188 12.230469 12.617188 11.410156 C 12.617188 10.414063 13.5 9.785156 14.835938 9.785156 C 16.179688 9.785156 17.183594 10.519531 17.269531 11.578125 L 20.785156 11.578125 C 20.734375 9.371094 19.179688 7.734375 16.777344 7.15625 L 16.777344 4.933594 Z M 4.933594 17.761719 L 0 22.699219 L 4.933594 27.632813 L 4.933594 24.671875 L 10.855469 24.671875 L 10.855469 23.976563 C 9.128906 23.3125 7.867188 22.183594 7.175781 20.722656 L 4.933594 20.722656 Z "/>
</g>
</svg>
