<?xml version="1.0" encoding="UTF-8"?>
<svg xmlns="http://www.w3.org/2000/svg" xmlns:xlink="http://www.w3.org/1999/xlink" width="32pt" height="32pt" viewBox="0 0 32 32" version="1.1">
<g id="surface1">
<path style=" stroke:none;fill-rule:nonzero;fill:#FFA113;fill-opacity:1;" d="M 17 3 L 17 5 L 19.585938 5 L 16 8.585938 L 14 6.585938 L 8.585938 12 L 11.414063 12 L 14 9.414063 L 16 11.414063 L 21 6.414063 L 21 9 L 23 9 L 23 3 Z M 3 13 L 3 29 L 29 29 L 29 13 Z M 6.914063 15 L 25.089844 15 C 25.03125 15.160156 25 15.328125 25 15.5 C 25 16.328125 25.671875 17 26.5 17 C 26.671875 17 26.839844 16.96875 27 16.910156 L 27 25.089844 C 26.839844 25.03125 26.671875 25 26.5 25 C 25.671875 25 25 25.671875 25 26.5 C 25 26.671875 25.03125 26.839844 25.089844 27 L 6.914063 27 C 6.96875 26.839844 7 26.671875 7 26.5 C 7 25.671875 6.328125 25 5.5 25 C 5.328125 25 5.160156 25.03125 5 25.089844 L 5 16.910156 C 5.160156 16.96875 5.328125 17 5.5 17 C 6.328125 17 7 16.328125 7 15.5 C 7 15.328125 6.96875 15.160156 6.914063 15 Z M 16 17 C 13.789063 17 12 18.789063 12 21 L 12 22 L 12.203125 22 C 12.652344 23.710938 14.144531 25 16 25 C 17.855469 25 19.347656 23.710938 19.796875 22 L 20 22 L 20 21 C 20 18.789063 18.210938 17 16 17 Z M 16 19 C 17.191406 19 18 19.808594 18 21 C 18 22.191406 17.191406 23 16 23 C 14.808594 23 14 22.191406 14 21 C 14 19.808594 14.808594 19 16 19 Z M 9 19.5 C 8.171875 19.5 7.5 20.171875 7.5 21 C 7.5 21.828125 8.171875 22.5 9 22.5 C 9.828125 22.5 10.5 21.828125 10.5 21 C 10.5 20.171875 9.828125 19.5 9 19.5 Z M 23 19.5 C 22.171875 19.5 21.5 20.171875 21.5 21 C 21.5 21.828125 22.171875 22.5 23 22.5 C 23.828125 22.5 24.5 21.828125 24.5 21 C 24.5 20.171875 23.828125 19.5 23 19.5 Z "/>
</g>
</svg>
