<?xml version="1.0" encoding="UTF-8"?>
<svg xmlns="http://www.w3.org/2000/svg" xmlns:xlink="http://www.w3.org/1999/xlink" width="30pt" height="30pt" viewBox="0 0 30 30" version="1.1">
<g id="surface1">
<path style=" stroke:none;fill-rule:nonzero;fill:#007EE5;fill-opacity:1;" d="M 9.867188 4.933594 C 7 4.933594 5.347656 7.175781 5.347656 9.867188 C 5.347656 10.777344 5.78125 11.6875 5.78125 11.6875 C 5.605469 11.792969 5.320313 12.109375 5.390625 12.675781 C 5.523438 13.730469 5.984375 13.996094 6.277344 14.019531 C 6.382813 15.003906 7.523438 16.261719 7.894531 16.449219 L 7.894531 18.089844 C 7.074219 20.558594 1.972656 18.914063 1.972656 24.671875 L 9.867188 24.671875 C 9.867188 21.550781 11.148438 19.925781 12.523438 18.996094 C 12.21875 18.765625 11.972656 18.484375 11.84375 18.089844 L 11.84375 16.449219 C 12.210938 16.261719 13.351563 15.003906 13.464844 14.019531 C 13.5 14.015625 13.539063 14.011719 13.574219 14 C 13.453125 13.679688 13.351563 13.332031 13.304688 12.925781 C 13.230469 12.355469 13.304688 11.851563 13.460938 11.425781 C 13.339844 10.976563 13.242188 10.433594 13.242188 9.867188 C 13.242188 8.890625 13.40625 7.980469 13.707031 7.164063 C 13.304688 6.554688 12.71875 6.167969 11.921875 6.167969 C 11.921875 6.167969 11.617188 4.933594 9.867188 4.933594 Z M 19.738281 4.933594 C 16.867188 4.933594 15.214844 7.175781 15.214844 9.867188 C 15.214844 10.777344 15.652344 11.6875 15.652344 11.6875 C 15.472656 11.792969 15.1875 12.109375 15.261719 12.675781 C 15.390625 13.730469 15.851563 13.996094 16.144531 14.019531 C 16.253906 15.003906 17.394531 16.261719 17.761719 16.449219 L 17.761719 18.089844 C 16.941406 20.558594 11.84375 18.914063 11.84375 24.671875 L 16.804688 24.671875 C 16.792969 24.507813 16.777344 24.34375 16.777344 24.175781 C 16.777344 20.953125 18.839844 18.222656 21.710938 17.207031 L 21.710938 16.449219 C 22.082031 16.261719 23.222656 15.003906 23.332031 14.019531 C 23.625 13.996094 24.082031 13.730469 24.214844 12.675781 C 24.289063 12.109375 24 11.792969 23.828125 11.6875 C 23.828125 11.6875 24.257813 10.863281 24.257813 9.867188 C 24.257813 7.871094 23.476563 6.167969 21.792969 6.167969 C 21.792969 6.167969 21.488281 4.933594 19.738281 4.933594 Z M 24.175781 18.75 C 21.179688 18.75 18.75 21.179688 18.75 24.175781 C 18.75 27.175781 21.179688 29.605469 24.175781 29.605469 C 27.175781 29.605469 29.605469 27.175781 29.605469 24.175781 C 29.605469 21.179688 27.175781 18.75 24.175781 18.75 Z M 22.363281 21.367188 L 25.996094 21.367188 L 25.996094 22.449219 L 23.433594 22.449219 L 23.328125 23.714844 L 23.402344 23.714844 C 23.613281 23.375 24 23.15625 24.5625 23.15625 C 25.601563 23.15625 26.339844 23.925781 26.339844 24.992188 C 26.339844 26.171875 25.46875 26.980469 24.152344 26.980469 C 22.882813 26.980469 22.035156 26.230469 22.015625 25.242188 L 23.28125 25.242188 C 23.339844 25.640625 23.703125 25.90625 24.164063 25.90625 C 24.671875 25.90625 25.03125 25.558594 25.03125 25.027344 C 25.03125 24.476563 24.667969 24.117188 24.164063 24.117188 C 23.773438 24.117188 23.503906 24.289063 23.328125 24.5625 L 22.105469 24.5625 Z "/>
</g>
</svg>
